<svg width="353" height="115" viewBox="0 0 353 115" fill="none" xmlns="http://www.w3.org/2000/svg">
<path d="M5.76 91L18.816 23.8H30L45.6 64.936L61.248 23.8H72.432L85.488 91H71.952L64.512 52.456L50.16 90.328H41.04L26.736 52.456L19.248 91H5.76Z" fill="#B13455"/>
<path d="M176.88 92.248C172.464 92.248 168.432 91.112 164.784 88.84C161.168 86.568 158.272 83.528 156.096 79.72C153.952 75.88 152.88 71.64 152.88 67C152.88 63.48 153.504 60.2 154.752 57.16C156 54.088 157.712 51.4 159.888 49.096C162.096 46.76 164.656 44.936 167.568 43.624C170.48 42.312 173.584 41.656 176.88 41.656C181.296 41.656 185.312 42.792 188.928 45.064C192.576 47.336 195.472 50.392 197.616 54.232C199.792 58.072 200.88 62.328 200.88 67C200.88 70.488 200.256 73.752 199.008 76.792C197.76 79.832 196.032 82.52 193.824 84.856C191.648 87.16 189.104 88.968 186.192 90.28C183.312 91.592 180.208 92.248 176.88 92.248ZM176.88 79C178.928 79 180.768 78.456 182.4 77.368C184.032 76.248 185.312 74.776 186.24 72.952C187.168 71.128 187.632 69.144 187.632 67C187.632 64.792 187.136 62.776 186.144 60.952C185.184 59.096 183.888 57.624 182.256 56.536C180.624 55.448 178.832 54.904 176.88 54.904C174.864 54.904 173.04 55.464 171.408 56.584C169.776 57.704 168.48 59.176 167.52 61C166.592 62.824 166.128 64.824 166.128 67C166.128 69.272 166.608 71.32 167.568 73.144C168.56 74.936 169.872 76.36 171.504 77.416C173.136 78.472 174.928 79 176.88 79ZM212.006 91V43H225.254V46.552C226.886 45.016 228.774 43.816 230.918 42.952C233.062 42.088 235.334 41.656 237.734 41.656C240.998 41.656 243.99 42.408 246.71 43.912C249.462 45.416 251.67 47.416 253.334 49.912C255.03 47.416 257.238 45.416 259.958 43.912C262.678 42.408 265.654 41.656 268.886 41.656C272.374 41.656 275.526 42.504 278.342 44.2C281.19 45.896 283.462 48.168 285.158 51.016C286.854 53.832 287.702 56.984 287.702 60.472V91H274.454V64.12C274.454 62.456 274.038 60.952 273.206 59.608C272.406 58.232 271.334 57.144 269.99 56.344C268.646 55.512 267.142 55.096 265.478 55.096C263.814 55.096 262.294 55.496 260.918 56.296C259.574 57.096 258.486 58.184 257.654 59.56C256.854 60.904 256.454 62.424 256.454 64.12V91H243.206V64.12C243.206 62.424 242.806 60.904 242.006 59.56C241.206 58.184 240.118 57.096 238.742 56.296C237.398 55.496 235.894 55.096 234.23 55.096C232.598 55.096 231.094 55.512 229.718 56.344C228.374 57.144 227.286 58.232 226.454 59.608C225.654 60.952 225.254 62.456 225.254 64.12V91H212.006ZM335.453 43H348.701V91H335.405L334.781 86.008C333.533 87.864 331.933 89.368 329.981 90.52C328.029 91.672 325.741 92.248 323.117 92.248C319.533 92.248 316.189 91.576 313.085 90.232C309.981 88.888 307.245 87.032 304.877 84.664C302.509 82.296 300.653 79.56 299.309 76.456C297.997 73.32 297.341 69.96 297.341 66.376C297.341 62.952 297.965 59.752 299.213 56.776C300.461 53.8 302.221 51.176 304.493 48.904C306.765 46.632 309.373 44.856 312.317 43.576C315.293 42.296 318.493 41.656 321.917 41.656C324.861 41.656 327.501 42.28 329.837 43.528C332.205 44.776 334.269 46.36 336.029 48.28L335.453 43ZM322.781 79.528C324.957 79.528 326.925 78.968 328.685 77.848C330.445 76.728 331.837 75.224 332.861 73.336C333.885 71.416 334.397 69.304 334.397 67C334.397 64.664 333.885 62.552 332.861 60.664C331.837 58.776 330.445 57.272 328.685 56.152C326.925 55.032 324.957 54.472 322.781 54.472C320.573 54.472 318.573 55.032 316.781 56.152C314.989 57.272 313.565 58.792 312.509 60.712C311.453 62.6 310.925 64.696 310.925 67C310.925 69.304 311.453 71.416 312.509 73.336C313.597 75.224 315.037 76.728 316.829 77.848C318.621 78.968 320.605 79.528 322.781 79.528Z" fill="#B13455"/>
<path d="M112.051 78.8787C113.316 79.6374 115.086 80.1433 117.11 80.1433C119.133 80.1433 120.903 79.6374 122.168 78.8787M124.697 68.7622H124.722" stroke="#B13455" stroke-width="5" stroke-linecap="round" stroke-linejoin="round"/>
<path d="M135.775 55.6435C137.548 58.2217 138.77 61.1378 139.366 64.2097C140.221 64.6239 140.942 65.2706 141.447 66.0757C141.952 66.8809 142.219 67.8119 142.219 68.7621C142.219 69.7123 141.952 70.6433 141.447 71.4485C140.942 72.2536 140.221 72.9003 139.366 73.3145C138.274 78.4069 135.469 82.9708 131.419 86.2448C127.368 89.5187 122.318 91.3047 117.11 91.3047C111.902 91.3047 106.851 89.5187 102.801 86.2448C98.7504 82.9708 95.9453 78.4069 94.8534 73.3145C93.9982 72.9003 93.277 72.2536 92.7723 71.4485C92.2677 70.6433 92 69.7123 92 68.7621C92 67.8119 92.2677 66.8809 92.7723 66.0757C93.277 65.2706 93.9982 64.6239 94.8534 64.2097C95.9011 59.0768 98.6873 54.4625 102.742 51.1452C106.796 47.8278 111.871 46.0106 117.11 46C122.168 46 125.962 48.782 125.962 52.3228C125.962 55.8636 123.685 58.6456 120.903 58.6456C118.88 58.6456 117.11 57.634 117.11 56.1165M109.522 68.7621H109.548" stroke="#B13455" stroke-width="5" stroke-linecap="round" stroke-linejoin="round"/>
</svg>
