<svg width="124" height="143" viewBox="0 0 124 143" fill="none" xmlns="http://www.w3.org/2000/svg">
<path d="M51.8847 47.2669C51.8204 46.0956 51.6469 44.9021 51.3657 43.6911C54.0595 43.0943 56.7234 42.4109 59.3574 41.6422C59.8973 41.485 61.055 41.0294 61.3033 40.4973L61.4424 40.5017C61.4005 40.5194 61.4275 40.559 61.5217 40.6222C62.1155 41.0103 62.7138 41.2866 63.3181 41.4482C65.1249 41.9333 66.9332 42.4153 68.7415 42.8945C69.096 42.9871 69.5732 43.1002 70.1759 43.231C70.6576 43.3369 71.1392 43.45 71.6208 43.572L70.9133 47.1597L70.9148 47.1758C70.9358 47.3463 70.9253 47.5021 70.8834 47.6432C70.864 47.7064 70.8251 47.7549 70.7668 47.7872L69.9172 48.2517C67.9563 49.0365 65.6723 49.0101 63.5873 49.0762C60.5824 49.1703 57.6478 49.0527 54.7849 48.7249C54.1164 48.6485 53.3999 48.4986 52.6356 48.2752C52.4965 48.0239 52.2736 47.8563 51.964 47.7725C51.8997 47.7564 51.8593 47.7152 51.8429 47.652C51.7995 47.4977 51.8144 47.3875 51.8877 47.3228L51.8847 47.2669ZM70.7772 47.3037H70.7712C70.7727 47.3037 70.7742 47.3037 70.7772 47.3037ZM70.7309 47.2993L70.7279 47.2978H70.7249C70.7264 47.2978 70.7279 47.2978 70.7309 47.2993ZM70.7174 47.2949L70.7144 47.2934L70.7099 47.2905C70.7129 47.2919 70.7144 47.2934 70.7174 47.2949ZM70.8281 47.2875L70.8266 47.289L70.8311 47.2846L70.8281 47.2875Z" fill="#944994"/>
<path d="M82.721 79.8803C80.5358 79.8245 78.4104 79.5541 76.3448 79.0676C75.8272 78.9471 75.3067 78.9294 74.7758 78.8545C73.9546 78.6208 73.3533 78.4209 72.9734 78.2577C71.0155 77.4112 69.1473 76.5014 67.3674 75.5299L63.0627 72.6933C63.2273 80.1243 63.8689 100.028 63.8809 100.155C63.9841 101.343 64.1441 102.835 64.361 104.632L64.7828 108.412L64.9354 109.735C65.1059 111.131 65.2166 112.316 65.2674 113.288C65.3003 113.889 65.2615 114.516 65.1523 115.167L65.1493 115.188C65.076 116.064 64.8157 116.847 64.367 117.538C64.2444 117.729 64.1277 117.923 64.017 118.122C63.9856 118.179 63.9736 118.239 63.9781 118.304L64.1397 119.935L64.1666 120.147L64.2638 121.234C64.2758 121.374 64.1935 121.506 64.0604 121.559L62.5811 122.15C62.1399 122.537 57.9623 122.349 57.9623 122.349C57.9578 122.279 57.9219 122.237 57.8531 122.219C57.379 122.1 56.3918 121.822 56.3694 121.274C56.3589 120.982 56.3529 120.739 56.3514 120.544L56.1959 120.095L55.9326 118.567C55.9207 118.502 55.8892 118.448 55.8384 118.404C55.3628 117.995 54.8497 117.419 54.2993 116.677C53.5993 115.732 53.1401 114.724 52.9262 113.654L52.4341 109.673L52.3264 108.449L51.9226 104.615L51.1717 97.7553L50.3491 90.8549L49.5354 84.7496L48.2356 75.4623C48.1055 74.4247 47.9649 73.3988 47.8168 72.3876C46.9628 66.5454 47.7121 60.8913 50.0619 55.4268L51.7969 51.4526C52.9008 51.8891 54.045 52.1875 55.2296 52.3491C59.0198 52.8665 62.8144 52.8959 66.6136 52.4344C68.0869 52.2536 69.5063 51.8832 70.8719 51.3218C71.5644 52.6828 73.1978 55.5252 73.2232 55.4958C74.0414 57.1008 74.855 58.6529 75.6642 60.149C76.1907 61.125 76.5646 61.7231 76.7845 61.9421C77.3544 62.5139 78.4388 63.3399 80.0362 64.4201C85.6437 68.2106 89.2334 70.6283 90.8069 71.6718C93.0984 73.1901 95.2402 74.895 97.2281 76.7821C97.59 77.126 97.9101 77.442 98.1883 77.7301C99.8052 79.8833 100.577 82.1305 99.8112 84.8025C99.5345 85.8299 98.9317 86.6397 98.0028 87.2335C96.6866 88.0771 95.3674 88.2549 93.7296 88.3108C89.1616 88.468 84.5668 88.5254 79.9465 88.4842C78.7454 88.4739 77.7268 88.4431 76.8892 88.3901C76.5871 88.371 76.3283 88.3269 76.1099 88.2608L76.077 88.2623C74.6441 88.3269 73.4072 87.8478 72.3661 86.8219C72.0146 84.8393 72.0401 82.8316 72.4409 80.796C73.0108 80.2551 73.627 79.7363 74.2881 79.2425C74.2941 79.2381 74.3465 79.1881 74.4422 79.0926C74.523 79.0147 74.6217 78.9867 74.7369 79.0058L75.9903 79.1572L76.077 79.1763C79.764 79.9582 83.4809 80.3551 87.2277 80.3698C87.286 80.3698 87.3204 80.3418 87.3279 80.286L87.3368 80.214C87.3368 80.1758 87.3054 80.1434 87.2665 80.1434C86.215 80.1199 85.1606 80.1067 84.1001 80.1037C83.7202 80.1023 83.2954 80.0288 82.8257 79.8833L82.721 79.8803Z" fill="#F25B3C"/>
<path d="M31.0946 98.4124C31.2607 98.5579 31.4297 98.6491 31.6017 98.6843C32.5156 99.2208 33.3801 99.8219 34.1968 100.488C34.2641 100.542 34.3688 100.56 34.5109 100.536C34.454 100.569 34.4361 100.608 34.4525 100.655C34.4765 100.721 34.5199 100.758 34.5827 100.764C34.5857 100.779 34.5887 100.795 34.5931 100.811C34.5991 100.845 34.6156 100.874 34.6395 100.898C35.6985 101.905 36.6049 103.029 37.3602 104.274C37.6773 104.801 37.9271 105.211 38.1051 105.508C38.2681 105.777 38.5299 106.465 38.8874 107.572C39.1506 108.391 39.3301 109.1 39.4228 109.704C39.8955 112.747 39.5275 115.553 38.322 118.123C36.9504 121.044 34.7861 123.476 31.8261 125.419C27.8758 127.81 23.6953 128.308 19.2874 126.918C18.2778 126.598 17.1844 126.091 16.0118 125.395C13.0248 123.413 10.9487 120.792 9.78207 117.535C8.83977 114.909 8.61541 112.2 9.109 109.411C9.11797 109.363 9.13891 109.322 9.17332 109.289C9.19874 109.264 9.2122 109.233 9.2152 109.197C9.2496 108.749 9.29596 108.43 9.35579 108.239C10.0588 105.945 11.1357 103.968 12.5866 102.307C12.6045 102.287 12.6299 102.275 12.6569 102.275C12.6868 102.275 12.7137 102.29 12.7316 102.313C14.2932 104.405 16.2227 106.092 18.5201 107.375C21.884 109.253 25.4962 110.429 29.3536 110.902C32.4946 111.287 35.6162 111.095 38.7169 110.325C38.9158 110.276 39.1207 110.206 39.3346 110.115C39.3451 110.11 39.3466 110.104 39.3361 110.097L39.2792 110.053C39.2568 110.037 39.2344 110.032 39.2104 110.04C36.2399 110.868 33.2006 111.137 30.0925 110.845C25.7878 110.441 21.8047 109.155 18.1402 106.988C16.806 106.198 15.6423 105.251 14.4951 104.147C13.825 103.499 13.2761 102.83 12.8483 102.137C12.8124 102.081 12.8184 102.029 12.8618 101.981L13.9925 100.76C14.0239 100.666 14.0135 100.595 13.9581 100.545C14.1735 100.56 14.3096 100.557 14.4801 100.407C15.3746 99.6264 16.3558 98.9636 17.4222 98.4198C17.4626 98.3992 17.4925 98.3419 17.509 98.2508C17.5823 98.2008 17.6481 98.1876 17.7049 98.2125C18.9868 100.122 20.665 101.624 22.7425 102.719C25.4827 104.162 28.4008 104.935 31.497 105.041C33.3996 105.106 35.2543 104.859 37.0611 104.302C37.088 104.293 37.1 104.275 37.0955 104.249L37.0895 104.191C37.0865 104.177 37.079 104.171 37.0656 104.175C34.7248 104.947 32.1985 105.138 29.4867 104.751C26.9964 104.394 24.7214 103.661 22.6618 102.547C21.3246 101.824 20.1041 100.871 19.0002 99.6926C18.5515 99.2134 18.1641 98.7108 17.8395 98.1832C17.8021 98.1229 17.8186 98.0817 17.8859 98.0597C18.6936 97.7996 19.4953 97.4762 20.1474 97.2969C23.9421 96.249 27.5917 96.6208 31.0946 98.4124ZM38.5344 117.321C38.5359 117.291 38.5224 117.281 38.494 117.291C35.0209 118.394 31.4476 118.78 27.7741 118.449C25.1073 118.211 22.5241 117.654 20.0233 116.783C17.4342 115.879 15.068 114.593 12.9246 112.925C11.5665 111.869 10.3804 110.652 9.36926 109.272C9.36477 109.266 9.36028 109.265 9.3528 109.271L9.30494 109.306C9.28101 109.322 9.27802 109.341 9.29447 109.363C9.97652 110.301 10.6002 111.048 11.1671 111.6C12.9126 113.308 14.9782 114.718 17.3624 115.826C21.7912 117.885 26.5252 118.832 31.5643 118.663C33.8303 118.588 36.1397 118.182 38.491 117.444C38.5164 117.437 38.5299 117.419 38.5314 117.393L38.5344 117.321ZM28.1017 124.098C26.5207 124.13 25.565 124.131 25.2344 124.101C19.3398 123.56 14.2378 121.314 9.92866 117.366C9.91071 117.35 9.89725 117.353 9.88827 117.375L9.85088 117.465C9.83891 117.49 9.8434 117.51 9.86434 117.529C13.5124 120.866 17.8036 122.994 22.7395 123.915C24.8156 124.303 26.935 124.409 29.0964 124.233C31.0184 124.079 32.8476 123.63 34.5797 122.891C34.5961 122.882 34.6096 122.87 34.6171 122.853L34.653 122.77C34.6619 122.75 34.6545 122.744 34.6335 122.753C33.4519 123.236 32.2239 123.599 30.9481 123.843C30.1778 123.99 29.2295 124.074 28.1017 124.098Z" fill="#FFF5E4"/>
<mask id="mask0_224_205" style="mask-type:luminance" maskUnits="userSpaceOnUse" x="0" y="125" width="124" height="17">
<path d="M0 125.054H123.891V141.233H0V125.054Z" fill="white"/>
</mask>
<g mask="url(#mask0_224_205)">
<path d="M12.0408 125.234L111.858 125.235C111.948 125.235 112.033 125.278 112.085 125.35L123.834 141.129L0.109375 141.152L11.8807 125.314C11.9196 125.26 11.9735 125.234 12.0408 125.234Z" fill="#FFF5E4"/>
</g>
<path d="M109.915 127.161C109.746 128.397 109.064 129.12 107.867 129.333C107.222 129.447 106.199 129.943 104.834 128.385C104.774 128.317 98.2899 129.702 98.2899 129.702C98.1433 129.719 98.0192 129.821 97.9743 129.957C97.6841 130.85 96.9363 131.117 96.0957 131.268C95.3837 131.396 94.7106 131.252 94.0794 130.839C92.8514 129.622 92.6136 128.229 93.363 126.658C93.7055 125.941 94.2784 125.553 95.0816 125.495C96.3829 125.398 97.2743 125.392 98.0476 126.605C98.1029 126.693 98.2061 126.74 98.3093 126.724C99.2083 126.581 104.467 125.869 104.493 125.808C104.639 125.463 104.722 125.256 104.739 125.188C104.938 124.408 105.41 123.876 106.151 123.592C107.421 123.106 108.413 123.329 109.126 124.264C109.731 125.056 109.992 126.022 109.915 127.161Z" fill="#944994"/>
<path d="M106.498 127.678C106.265 127.072 105.908 126.552 105.423 126.116C105.374 126.07 105.345 126.014 105.336 125.947C105.291 125.541 105.389 125.156 105.628 124.791C106.446 123.543 107.807 124.743 108.132 125.639C108.455 126.526 108.519 128.223 107.33 128.513C106.994 128.596 106.72 128.551 106.606 128.207C106.564 128.078 106.561 127.842 106.498 127.678Z" fill="#733474"/>
<path fill-rule="evenodd" clip-rule="evenodd" d="M96.5444 128.162C96.7299 129.271 96.2572 130.271 95.4899 130.394C94.7241 130.518 93.9508 129.718 93.7668 128.608C93.5814 127.5 94.054 126.499 94.8213 126.376C95.5871 126.252 96.3604 127.053 96.5444 128.162Z" fill="#733474"/>
<path d="M105.755 129.931L105.834 129.354C105.846 129.264 105.895 129.23 105.984 129.255C106.595 129.421 107.222 129.448 107.867 129.333C109.063 129.12 109.745 128.397 109.914 127.161C110.674 127.271 111.153 127.652 111.349 128.303C111.524 128.88 110.637 129.374 110.203 129.523C108.767 130.01 107.285 130.147 105.755 129.931Z" fill="#D0CED0"/>
<path d="M98.5099 131.436C98.5667 131.723 104.129 129.875 108.117 130.833C114.166 132.286 107.608 133.483 104.466 134.201C103.845 134.343 103.07 134.496 102.074 134.53C101.023 134.565 100.176 134.478 99.5374 134.27C98.2107 133.835 97.1293 133.591 96.6058 133.954C95.502 134.716 92.2712 134.803 92.85 133.154C92.9278 132.932 92.6152 132.846 92.7379 132.629C93.3691 133.044 94.0421 133.186 94.7541 133.06C95.5947 132.907 96.3426 132.64 96.6327 131.749C96.6776 131.611 96.8002 131.511 96.9468 131.492L98.3588 131.329C98.4291 131.32 98.4949 131.367 98.5099 131.436Z" fill="#FFF5E4"/>
<path d="M108.895 129.869C108.727 131.104 108.045 131.829 106.848 132.042C106.204 132.156 105.181 132.652 103.815 131.094C103.755 131.025 97.2713 132.411 97.2713 132.411C97.1233 132.428 97.0006 132.528 96.9557 132.666C96.6656 133.557 95.9177 133.826 95.0771 133.977C94.3652 134.105 93.6921 133.961 93.0609 133.547C91.8329 132.331 91.5951 130.936 92.3444 129.367C92.6869 128.65 93.2598 128.261 94.063 128.204C95.3643 128.107 96.2557 128.101 97.0275 129.314C97.0829 129.402 97.1876 129.449 97.2908 129.431C98.1882 129.29 103.449 128.577 103.474 128.517C103.621 128.172 103.703 127.965 103.721 127.897C103.92 127.115 104.389 126.583 105.131 126.299C106.403 125.813 107.394 126.038 108.108 126.973C108.712 127.765 108.974 128.73 108.895 129.869Z" fill="#944994"/>
<path d="M105.478 130.385C105.247 129.781 104.888 129.261 104.405 128.824C104.355 128.779 104.327 128.721 104.318 128.655C104.273 128.25 104.37 127.865 104.609 127.5C105.428 126.252 106.789 127.45 107.113 128.348C107.436 129.234 107.501 130.932 106.312 131.221C105.975 131.304 105.701 131.258 105.588 130.916C105.546 130.786 105.543 130.551 105.478 130.385Z" fill="#733474"/>
<path fill-rule="evenodd" clip-rule="evenodd" d="M95.5258 130.87C95.7098 131.979 95.2387 132.979 94.4714 133.103C93.7056 133.226 92.9323 132.427 92.7483 131.317C92.5628 130.207 93.0355 129.208 93.8028 129.085C94.5686 128.961 95.3404 129.761 95.5258 130.87Z" fill="#733474"/>
<path d="M31.8259 125.419C32.3359 125.462 32.8145 125.51 33.2602 125.565C34.4135 125.706 35.5442 126.06 36.6526 126.626C36.8231 126.714 36.9741 126.829 37.1073 126.968C37.7714 127.679 37.1446 128.251 36.4835 128.533C35.6355 128.892 34.7081 129.179 33.7 129.39C30.7594 130.008 27.5212 130.205 24.1797 130.227C21.0596 130.247 18.2671 130.066 15.8007 129.683C14.5861 129.493 13.4793 129.237 12.4831 128.914C12.0165 128.763 11.5902 128.57 11.2058 128.336C10.2007 127.725 10.7361 126.984 11.5139 126.561C12.0614 126.264 12.7314 126.038 13.5257 125.885C14.3184 125.731 15.147 125.567 16.0116 125.396C17.1842 126.091 18.2761 126.598 19.2872 126.917C23.6951 128.309 27.8756 127.809 31.8259 125.419Z" fill="#FFF5E4"/>
<mask id="mask1_224_205" style="mask-type:luminance" maskUnits="userSpaceOnUse" x="0" y="140" width="124" height="3">
<path d="M0 140.857H124V142.362H0V140.857Z" fill="white"/>
</mask>
<g mask="url(#mask1_224_205)">
<path d="M0.10921 141.153L123.834 141.129C123.994 141.304 123.996 141.62 123.84 142.073C108.18 142.13 90.7486 142.134 81.2373 142.107C69.0411 142.073 56.845 142.073 44.6474 142.109C35.4188 142.137 20.6993 142.136 0.489124 142.107C0.200449 142.105 0.0613468 142.023 0.0703209 141.86C0.0269451 141.477 0.0404063 141.241 0.10921 141.153Z" fill="#CC54A3"/>
</g>
<mask id="mask2_224_205" style="mask-type:luminance" maskUnits="userSpaceOnUse" x="0" y="141" width="124" height="2">
<path d="M0 141.61H123.891V143H0V141.61Z" fill="white"/>
</mask>
<g mask="url(#mask2_224_205)">
<path d="M0.0704397 141.859C0.0614655 142.023 0.200568 142.105 0.489242 142.105C20.6995 142.136 35.4189 142.137 44.6475 142.109C56.8451 142.072 69.0413 142.071 81.2374 142.105C90.7487 142.133 108.18 142.128 123.84 142.072L123.886 142.801C123.886 142.803 123.886 142.806 123.886 142.807C123.889 142.91 123.806 142.997 123.7 143C123.698 143 123.697 143 123.694 143H0.285824C0.187106 143 0.10185 142.934 0.079414 142.841C0.00761927 142.525 0.00462791 142.197 0.0719354 141.859H0.0704397Z" fill="#D0CED0"/>
</g>
<path fill-rule="evenodd" clip-rule="evenodd" d="M61.0927 18.0895C57.1051 18.0703 55.6841 13.3069 55.6841 13.3069C55.6841 13.3069 55.6408 13.6126 55.2878 13.6126C54.9333 13.6126 54.0972 12.8116 54.0972 11.7578C54.0972 10.7025 54.4292 10.1234 55.0619 10.1234C55.6946 10.1234 55.8875 10.4821 55.8875 10.4821C55.8875 4.26359 61.1151 4.96318 61.1151 4.96318L61.1301 4.96024C61.4367 4.92644 66.3442 4.45759 66.3442 10.4821C66.3442 10.4821 66.5371 10.1234 67.1698 10.1234C67.8025 10.1234 68.1345 10.7025 68.1345 11.7578C68.1345 12.8116 67.2984 13.6126 66.9439 13.6126C66.5909 13.6126 66.5476 13.3069 66.5476 13.3069C66.5476 13.3069 65.1221 18.0895 61.1151 18.0895H61.0927Z" fill="#FFCED0"/>
<mask id="mask3_224_205" style="mask-type:luminance" maskUnits="userSpaceOnUse" x="51" y="0" width="20" height="19">
<path d="M51.1387 0H70.6668V18.9509H51.1387V0Z" fill="white"/>
</mask>
<g mask="url(#mask3_224_205)">
<path fill-rule="evenodd" clip-rule="evenodd" d="M51.4634 17.6119C51.4634 17.6119 52.8738 14.671 52.6988 11.0672C52.5238 7.46482 53.164 3.06 56.685 1.91654C56.685 1.91654 57.9683 0 61.1078 0C64.2473 0 68.5819 2.37363 69.1638 8.69353C69.7456 15.0149 69.8518 15.5087 70.5982 17.6178L61.6014 18.651L55.4884 18.0896L51.4634 17.6119ZM66.3458 10.4543V10.4822C66.3458 10.4822 66.5388 10.1236 67.1715 10.1236C67.8042 10.1236 68.1362 10.7027 68.1362 11.7579C68.1362 12.8117 67.3001 13.6128 66.9471 13.6128C66.5926 13.6128 66.5492 13.307 66.5492 13.307C66.5492 13.307 65.1238 18.0896 61.1183 18.0896H61.0943C57.1067 18.0705 55.6873 13.307 55.6873 13.307C55.6873 13.307 55.6439 13.6128 55.2894 13.6128C54.9364 13.6128 54.1003 12.8117 54.1003 11.7579C54.1003 10.7027 54.4324 10.1236 55.0651 10.1236C55.5826 10.1236 55.8055 10.3632 55.8698 10.4499L55.9132 10.5454C55.9132 10.5454 56.5085 9.74145 57.4149 8.44514C58.3198 7.1503 58.5755 5.77315 58.5755 5.77315C61.2185 8.56125 66.3443 10.4587 66.3443 10.4587L66.3458 10.4543Z" fill="#55252B"/>
</g>
<path d="M55.6269 12.9837C55.6269 13.0734 55.594 13.1498 55.5296 13.213C55.4653 13.2762 55.389 13.3071 55.2978 13.3071C55.2066 13.3071 55.1288 13.2762 55.0645 13.213C55.0002 13.1498 54.9688 13.0734 54.9688 12.9837C54.9688 12.8941 55.0002 12.8177 55.0645 12.7545C55.1288 12.6913 55.2066 12.6589 55.2978 12.6589C55.389 12.6589 55.4653 12.6913 55.5296 12.7545C55.594 12.8177 55.6269 12.8941 55.6269 12.9837Z" fill="white"/>
<path d="M67.4003 12.9837C67.4003 13.0734 67.3689 13.1498 67.3046 13.213C67.2403 13.2762 67.1625 13.3071 67.0712 13.3071C66.98 13.3071 66.9022 13.2762 66.8379 13.213C66.7736 13.1498 66.7422 13.0734 66.7422 12.9837C66.7422 12.8941 66.7736 12.8177 66.8379 12.7545C66.9022 12.6913 66.98 12.6589 67.0712 12.6589C67.1625 12.6589 67.2403 12.6913 67.3046 12.7545C67.3689 12.8177 67.4003 12.8941 67.4003 12.9837Z" fill="white"/>
<path fill-rule="evenodd" clip-rule="evenodd" d="M54.9322 13.4556C55.0683 13.557 55.1939 13.6128 55.2881 13.6128C55.6411 13.6128 55.6845 13.3071 55.6845 13.3071C55.6845 13.3071 57.1039 18.0706 61.093 18.0897H61.1155C65.1225 18.0897 66.5479 13.3071 66.5479 13.3071C66.5479 13.3071 66.5898 13.6128 66.9443 13.6128C67.037 13.6128 67.1642 13.557 67.3003 13.4556C67.4185 13.9803 68.1125 16.5023 70.6836 17.6987C70.6836 17.6987 67.74 21.8243 61.1155 19.3816L61.0766 19.3948C54.4804 21.8081 51.5488 17.6987 51.5488 17.6987C54.1185 16.5023 54.8125 13.9803 54.9322 13.4556Z" fill="#55252B"/>
<path fill-rule="evenodd" clip-rule="evenodd" d="M60.0501 9.94122C60.0501 9.94122 59.5281 9.55909 58.7383 9.55909C57.9486 9.55909 57.4595 9.73546 57.4595 9.73546C57.4595 9.73546 57.6913 9.04468 58.7383 9.04468C59.7853 9.04468 60.2744 9.52234 60.0501 9.94122Z" fill="#322728"/>
<path fill-rule="evenodd" clip-rule="evenodd" d="M62.7141 9.94122C62.7141 9.94122 63.2376 9.55909 64.0273 9.55909C64.8156 9.55909 65.3047 9.73546 65.3047 9.73546C65.3047 9.73546 65.0728 9.04468 64.0273 9.04468C62.9803 9.04468 62.4912 9.52234 62.7141 9.94122Z" fill="#322728"/>
<path d="M59.5698 11.2083C59.5698 11.295 59.5548 11.3802 59.5234 11.4611C59.492 11.5419 59.4486 11.6139 59.3903 11.6756C59.3334 11.7374 59.2661 11.7859 59.1913 11.8197C59.1166 11.8535 59.0388 11.8696 58.9565 11.8696C58.8757 11.8696 58.7965 11.8535 58.7217 11.8197C58.6469 11.7859 58.5811 11.7374 58.5227 11.6756C58.4659 11.6139 58.421 11.5419 58.3896 11.4611C58.3582 11.3802 58.3433 11.295 58.3433 11.2083C58.3433 11.1201 58.3582 11.0348 58.3896 10.954C58.421 10.8732 58.4659 10.8011 58.5227 10.7394C58.5811 10.6777 58.6469 10.6292 58.7217 10.5954C58.7965 10.563 58.8757 10.5454 58.9565 10.5454C59.0388 10.5454 59.1166 10.563 59.1913 10.5954C59.2661 10.6292 59.3334 10.6777 59.3903 10.7394C59.4486 10.8011 59.492 10.8732 59.5234 10.954C59.5548 11.0348 59.5698 11.1201 59.5698 11.2083Z" fill="#322728"/>
<path d="M64.4203 11.2083C64.4203 11.295 64.4054 11.3802 64.374 11.4611C64.3426 11.5419 64.2992 11.6139 64.2409 11.6756C64.184 11.7374 64.1182 11.7859 64.0419 11.8197C63.9671 11.8535 63.8894 11.8696 63.8071 11.8696C63.7263 11.8696 63.6485 11.8535 63.5723 11.8197C63.4975 11.7859 63.4317 11.7374 63.3733 11.6756C63.3165 11.6139 63.2716 11.5419 63.2402 11.4611C63.2103 11.3802 63.1938 11.295 63.1938 11.2083C63.1938 11.1201 63.2103 11.0348 63.2402 10.954C63.2716 10.8732 63.3165 10.8011 63.3733 10.7394C63.4317 10.6777 63.4975 10.6292 63.5723 10.5954C63.6485 10.563 63.7263 10.5454 63.8071 10.5454C63.8894 10.5454 63.9671 10.563 64.0419 10.5954C64.1182 10.6292 64.184 10.6777 64.2409 10.7394C64.2992 10.8011 64.3426 10.8732 64.374 10.954C64.4054 11.0348 64.4203 11.1201 64.4203 11.2083Z" fill="#322728"/>
<path fill-rule="evenodd" clip-rule="evenodd" d="M59.5698 15.1663H62.6615C62.6615 15.1663 62.1829 16.1275 61.1403 16.1275C60.0963 16.1275 59.5698 15.1663 59.5698 15.1663Z" fill="#FF6977"/>
<path d="M58.1398 17.0283C58.9086 17.6412 59.8823 18.0836 61.0923 18.0895H61.1147C62.2575 18.0895 63.1893 17.7015 63.9387 17.1459L64.0583 18.26C63.6156 18.8361 62.938 19.0801 62.259 19.3226C61.8626 19.4622 61.4902 19.5254 61.1417 19.5092C60.5823 19.4828 60.0259 19.3211 59.4709 19.0242C59.0207 18.7847 58.5586 18.5319 58.0874 18.2658L58.1398 17.0283Z" fill="#FFCED0"/>
<path d="M64.059 18.26C64.1502 18.795 64.213 19.3285 64.2489 19.8606C64.2669 20.1163 64.3701 20.372 64.5615 20.6278C65.1015 21.3479 66.4491 21.5067 67.3286 21.4787C67.215 22.1592 66.9876 22.8647 66.6451 23.5937C65.791 25.4206 64.3521 26.3509 62.3284 26.3847C62.2611 26.3847 62.2372 26.4156 62.2566 26.4788C62.3883 26.933 62.469 27.2637 62.4974 27.4724C62.831 29.9797 63.1959 32.4812 63.5893 34.9783C63.7479 36.2746 64.035 37.5298 64.4524 38.7467C64.4823 38.8364 64.569 38.8967 64.6647 38.8952L67.4767 38.8335L72.3333 38.6806C73.8829 38.6674 75.4355 38.538 76.988 38.2941C77.0075 38.2897 77.0209 38.2735 77.0209 38.2559C77.0209 38.2456 77.0164 38.2367 77.0104 38.2294L75.063 36.3026L73.2008 34.2199C73.1964 33.0882 73.0423 31.9492 72.7357 30.8013C72.6429 30.453 72.5173 30.1135 72.3587 29.7843C71.5855 28.1881 70.857 26.5729 70.175 24.94C69.7352 23.8847 69.4017 22.778 69.1758 21.6184C70.6491 21.711 71.9863 22.1416 73.1874 22.9132C74.1521 23.5334 75.0137 24.2771 75.7735 25.1428C76.8953 26.42 77.9543 27.7457 78.9519 29.1199C81.0025 31.9492 82.923 34.8593 84.7089 37.8502C85.5032 39.2906 86.4784 41.1645 86.0641 42.7606C85.925 43.3029 85.5495 43.6601 84.9423 43.8321C82.7121 44.0555 80.9592 44.1745 79.6833 44.1892C77.2961 44.2157 74.7265 43.9717 71.9758 43.4587C71.7634 43.4191 71.6453 43.4573 71.6214 43.5719C71.1397 43.4499 70.6581 43.3368 70.175 43.2309C69.5737 43.1001 69.0966 42.987 68.7421 42.8944C66.9338 42.4152 65.1254 41.9331 63.3186 41.4481C62.7143 41.2865 62.116 41.0102 61.5222 40.6221C61.428 40.5589 61.4011 40.5193 61.443 40.5016C61.4968 40.1753 61.5297 39.4875 61.5402 38.4352C61.5791 34.5286 61.6 30.4971 61.6045 26.3392C61.6045 26.2966 61.5821 26.276 61.5372 26.2804C61.4789 26.2833 61.4504 26.3127 61.4504 26.3715L61.3039 40.4972C61.0556 41.0293 59.8979 41.4849 59.3564 41.6421C56.7239 42.4108 54.0601 43.0942 51.3648 43.691C51.3588 43.6439 51.272 43.6336 51.1075 43.663C48.9701 44.0452 46.8208 44.3362 44.6594 44.5361C42.6342 44.7227 40.6165 44.7242 38.6062 44.5405C38.0708 44.4288 37.7193 44.1642 37.5518 43.7483C37.1419 42.7283 37.5099 41.1557 37.8748 40.1886C38.1919 39.342 38.4043 38.76 38.5075 38.444C40.1797 34.8637 41.8819 31.5141 43.6124 28.3909C44.0088 27.6766 44.4545 26.9491 44.9511 26.2069C45.5344 25.3353 46.0594 24.6622 46.5276 24.1904C48.3 22.4062 50.5302 21.492 53.2195 21.4479C53.1148 22.7016 52.9487 23.6951 52.7229 24.4256C52.0962 26.4538 51.1688 28.7496 49.9393 31.3128C49.7943 31.617 49.5834 32.2858 49.3067 33.3175L47.2635 36.2276L45.7992 38.4719C45.7962 38.4778 45.7932 38.4837 45.7902 38.491C45.7752 38.5366 45.8007 38.5851 45.8455 38.5998C45.853 38.6012 45.8605 38.6027 45.868 38.6027L50.237 38.8438C50.2714 38.8452 50.2968 38.8305 50.3133 38.8011C50.3252 38.7747 50.3342 38.7482 50.3417 38.7232L50.3716 38.7673C50.3955 38.8026 50.4299 38.8202 50.4748 38.8217L56.1077 38.9172L58.0477 38.8937C58.112 38.8923 58.1718 38.8629 58.2122 38.8129C58.3528 38.6395 58.4545 38.4058 58.5173 38.1148C58.7955 36.8184 58.9765 35.725 59.0618 34.8314C59.4761 32.856 59.8979 30.575 60.3301 27.9868C60.4169 27.4665 60.5665 26.9624 60.7804 26.4759C60.8088 26.4127 60.7893 26.3906 60.722 26.4083C60.4648 26.4773 60.1417 26.4759 59.7558 26.4024C58.3184 26.1261 57.2684 25.3677 56.6058 24.1258C56.1212 23.216 55.7293 22.2886 55.4301 21.3406C55.6096 21.298 55.9207 21.2509 56.3635 21.201C57.1846 21.1069 57.6782 20.6601 57.8427 19.8591C57.943 19.3814 58.0237 18.8508 58.088 18.2659C58.5592 18.5319 59.0214 18.7847 59.4716 19.0243C60.0265 19.3212 60.5829 19.4828 61.1408 19.5093C61.4908 19.5255 61.8633 19.4637 62.2596 19.3226C62.9372 19.0801 63.6162 18.8361 64.059 18.26Z" fill="#FFCED0"/>
<path d="M55.4296 21.3406C55.7288 22.2886 56.1207 23.216 56.6053 24.1257C57.2679 25.3677 58.3179 26.1261 59.7553 26.4024C60.1412 26.4759 60.4643 26.4773 60.7215 26.4082C60.7888 26.3906 60.8083 26.4127 60.7798 26.4759C60.566 26.9623 60.4164 27.4665 60.3296 27.9868C59.8974 30.575 59.4756 32.856 59.0613 34.8313C58.4854 36.5539 57.5012 37.9149 56.1072 38.9172L50.4743 38.8217C50.4294 38.8202 50.395 38.8026 50.3711 38.7673L50.3412 38.7232L49.882 37.0066C49.5769 35.8602 49.3854 34.6315 49.3062 33.3175C49.5829 32.2857 49.7938 31.617 49.9388 31.3128C51.1683 28.7495 52.0957 26.4538 52.7224 24.4256C52.9482 23.6951 53.1143 22.7016 53.219 21.4464L55.4296 21.3406Z" fill="#944994"/>
<path d="M69.1758 21.6184C69.4016 22.778 69.7352 23.8847 70.1764 24.94C70.857 26.5729 71.5854 28.1881 72.3587 29.7843C72.5172 30.1135 72.6428 30.453 72.7356 30.8013C73.0422 31.9492 73.1978 33.0883 73.2008 34.22L72.8208 36.7156L72.3332 38.6806L67.4766 38.8335C66.3743 38.2485 65.5023 37.5519 64.8621 36.7464C64.4553 36.2364 63.9497 35.5192 63.7238 34.8211C63.6805 34.6903 63.6461 34.6932 63.6191 34.827L63.5892 34.9783C63.1959 32.4812 62.8309 29.9797 62.4973 27.4724C62.4689 27.2637 62.3882 26.933 62.2565 26.4788C62.2371 26.4156 62.261 26.3848 62.3283 26.3848C64.352 26.351 65.7909 25.4206 66.645 23.5937C66.9875 22.8647 67.2149 22.1593 67.3285 21.4788L69.1758 21.6184Z" fill="#944994"/>
<path d="M63.9689 23.3732C63.9031 23.5246 63.8433 23.5966 63.7894 23.5893C63.4634 23.5452 63.4424 23.4482 63.7281 23.2983L66.3546 21.9167C66.3546 21.9153 66.3561 21.9153 66.3576 21.9153C66.3845 21.9035 66.4234 21.9358 66.4443 21.9843C66.4443 21.9858 66.4458 21.9873 66.4458 21.9888L66.4638 22.0402C66.4668 22.049 66.4593 22.0593 66.4398 22.0681L64.1065 23.2277C64.0422 23.2601 63.9958 23.3086 63.9689 23.3732Z" fill="#FFCED0"/>
<path d="M59.142 23.3732C59.2078 23.5246 59.2676 23.5966 59.3215 23.5893C59.6475 23.5452 59.6685 23.4482 59.3828 23.2983L56.7563 21.9167C56.7563 21.9153 56.7548 21.9153 56.7533 21.9153C56.7264 21.9035 56.6875 21.9358 56.6666 21.9843C56.6651 21.9858 56.6651 21.9873 56.6651 21.9888L56.6471 22.0402C56.6441 22.049 56.6516 22.0593 56.6711 22.0681L59.0044 23.2277C59.0687 23.2601 59.1151 23.3086 59.142 23.3732Z" fill="#FFCED0"/>
<path d="M61.4428 40.5016L61.3037 40.4972L61.4503 26.3715C61.4503 26.3127 61.4787 26.2833 61.537 26.2804C61.5819 26.276 61.6044 26.2965 61.6044 26.3392C61.5999 30.4971 61.5789 34.5286 61.54 38.4351C61.5296 39.4875 61.4967 40.1753 61.4428 40.5016Z" fill="#FFCED0"/>
<path d="M67.4763 38.8333L64.6643 38.895C64.5686 38.8965 64.4818 38.8362 64.4519 38.7466C64.0346 37.5296 63.7474 36.2745 63.5889 34.9782L63.6188 34.8268C63.6457 34.693 63.6801 34.6901 63.7235 34.8209C63.9493 35.519 64.4549 36.2363 64.8617 36.7463C65.5019 37.5517 66.3739 38.2483 67.4763 38.8333Z" fill="#733474"/>
<path d="M59.0615 34.8313C58.9762 35.7249 58.7952 36.8184 58.517 38.1147C58.4542 38.4057 58.3525 38.6394 58.2119 38.8128C58.1715 38.8628 58.1117 38.8922 58.0474 38.8937L56.1074 38.9172C57.5014 37.9148 58.4856 36.5538 59.0615 34.8313Z" fill="#733474"/>
<path d="M61.4424 40.5017C61.4005 40.5194 61.4275 40.559 61.5217 40.6222C62.1155 41.0103 62.7138 41.2866 63.3181 41.4482C65.1249 41.9333 66.9332 42.4153 68.7415 42.8945C69.096 42.9871 69.5732 43.1002 70.1759 43.231C70.6576 43.3369 71.1392 43.45 71.6208 43.572L70.9133 47.1597C70.8804 47.2522 70.8356 47.2993 70.7772 47.3037C70.7353 47.3081 70.698 47.2919 70.665 47.2537C69.4969 45.9853 67.9892 45.1887 66.4142 44.3627C65.6544 43.9644 64.7958 43.7205 64.0869 43.6352C62.3548 43.428 60.5151 43.4397 58.5661 43.6734C57.7809 43.7675 57.2634 43.9791 56.5514 44.3172C54.8193 45.1446 53.2653 46.147 51.8877 47.3228C51.8249 46.1323 51.6514 44.9227 51.3657 43.6911C54.0595 43.0943 56.7234 42.4109 59.3574 41.6422C59.8973 41.485 61.055 41.0294 61.3033 40.4973L61.4424 40.5017Z" fill="#733474"/>
<path d="M69.9171 48.2515L70.8714 51.3232C69.5058 51.8832 68.0863 52.2536 66.613 52.4344C62.8139 52.8959 59.0192 52.8665 55.2291 52.3491C54.0445 52.1874 52.9002 51.8891 51.7964 51.4526L52.6355 48.275C53.3998 48.4984 54.1163 48.6483 54.7848 48.7247C57.6477 49.0525 60.5823 49.1701 63.5872 49.076C65.6722 49.0099 67.9562 49.0363 69.9171 48.2515Z" fill="#FFCED0"/>
<path d="M61.8961 56.8027C63.5788 56.8306 65.2032 56.7719 66.7677 56.6293C68.8183 56.4441 70.8391 56.0605 72.8269 55.4785C72.8628 55.4667 72.8837 55.4799 72.8882 55.5167L72.8957 55.5858C72.8987 55.6122 72.8882 55.6299 72.8628 55.6372C71.6064 56.0105 70.338 56.2957 69.0577 56.4926C66.7961 56.8409 64.4089 56.9953 61.8916 56.9541C59.3758 56.9129 56.9946 56.6822 54.7466 56.2589C53.4737 56.0208 52.2158 55.6945 50.9729 55.2801C50.9474 55.2712 50.937 55.2536 50.9399 55.2272L50.9504 55.1581C50.9579 55.1213 50.9788 55.1096 51.0147 55.1213C52.9801 55.768 54.9859 56.2178 57.029 56.4706C58.5891 56.6646 60.2119 56.7748 61.8961 56.8027Z" fill="#512C11"/>
<path fill-rule="evenodd" clip-rule="evenodd" d="M53.2401 56.9614C53.2416 56.954 53.2371 56.9482 53.2311 56.9467L51.4079 56.5425C51.4019 56.5411 51.3944 56.5455 51.3929 56.5513L51.372 56.6469C51.3705 56.6542 51.3735 56.6601 51.3809 56.6616L53.2027 57.0657C53.2102 57.0672 53.2162 57.0628 53.2177 57.0569L53.2401 56.9614Z" fill="#512C11"/>
<path fill-rule="evenodd" clip-rule="evenodd" d="M71.0868 57.1789C71.0838 57.173 71.0763 57.1701 71.0703 57.173L70.9447 57.2318C70.9387 57.2348 70.9357 57.2421 70.9387 57.248L71.866 59.1498C71.869 59.1557 71.8765 59.1586 71.8825 59.1557L72.0081 59.0969C72.0141 59.094 72.0171 59.0866 72.0141 59.0808L71.0868 57.1789Z" fill="#512C11"/>
<path fill-rule="evenodd" clip-rule="evenodd" d="M75.6368 61.5527C75.6383 61.541 75.6309 61.5307 75.6189 61.5307L74.2368 61.3822C74.2249 61.3808 74.2159 61.3896 74.2144 61.4013L74.1965 61.5601C74.195 61.5718 74.2039 61.5807 74.2144 61.5821L75.5965 61.7306C75.6084 61.7306 75.6189 61.7232 75.6189 61.7115L75.6368 61.5527Z" fill="#512C11"/>
<path d="M62.9517 69.9038C63.6502 70.3227 64.401 70.8121 65.0367 71.2854C66.0388 72.0305 66.688 72.4979 66.9841 72.689C69.0692 74.0235 71.2514 75.1875 73.5309 76.1796C76.5134 77.4759 79.611 78.7105 82.8238 79.8834C80.6027 79.8334 78.4429 79.5615 76.3444 79.0677C75.8269 78.9471 75.3063 78.9295 74.7739 78.8545C73.9542 78.6208 73.3529 78.421 72.9715 78.2578C71.0151 77.4113 69.1469 76.5015 67.367 75.53L63.0294 72.6728L62.9517 69.9038Z" fill="#CA4822"/>
<path d="M82.8242 79.8833C83.2953 80.0288 83.7201 80.1023 84.1 80.1038C85.159 80.1067 86.215 80.1199 87.265 80.1435C87.3039 80.1435 87.3368 80.1758 87.3368 80.214C87.3368 80.2184 87.3353 80.2214 87.3353 80.2243L87.3278 80.286C87.3188 80.3419 87.2859 80.3698 87.2276 80.3698C83.4509 80.3551 79.7056 79.9509 75.9902 79.1573L74.7368 79.0059L74.7742 78.8545C75.3052 78.9294 75.8272 78.9471 76.3447 79.0676C78.4432 79.5614 80.603 79.8333 82.8242 79.8833Z" fill="#512C11"/>
<path d="M74.7366 79.0058L75.99 79.1572C75.3648 79.4056 74.8802 79.8759 74.5317 80.5652C74.0605 81.4955 73.7898 82.3744 73.7225 83.2019C73.6492 84.0896 73.6746 84.8348 73.7987 85.4374C73.9498 86.1649 74.3686 86.8145 75.0567 87.3877C75.3722 87.6494 75.7237 87.9404 76.1096 88.2608C74.6618 88.3357 73.4143 87.8551 72.3643 86.8219C72.0143 84.8392 72.0398 82.8315 72.4406 80.7959C73.0105 80.2551 73.6252 79.7363 74.2879 79.2424C74.2938 79.238 74.3462 79.188 74.4419 79.0925C74.5227 79.0146 74.6199 78.9867 74.7366 79.0058Z" fill="#CA4822"/>
<path d="M72.4405 80.7961C72.0397 82.8317 72.0143 84.8394 72.3643 86.8221C71.6912 86.8721 70.8925 86.8765 69.9711 86.8353C69.3653 86.8074 68.788 86.9485 68.2391 87.2586C67.6049 87.6143 67.2205 88.33 66.9198 88.9958C66.5698 89.7719 66.3141 90.3936 66.151 90.858C65.7502 91.9588 65.5258 92.7687 65.478 93.2845C65.4406 93.6799 65.4346 93.9592 65.46 94.1208C65.6574 95.4054 65.7636 96.2431 65.7771 96.6311C65.7846 96.8443 65.8339 97.7099 65.2072 98.0524C65.0352 98.1464 64.9485 98.264 64.9186 98.3596C64.7585 98.8652 64.953 99.0209 65.3209 99.3149C65.3239 99.3164 65.3269 99.3178 65.3299 99.3208C65.475 99.4428 65.4914 99.6618 65.3658 99.8058C65.3643 99.8087 65.3613 99.8102 65.3598 99.8131C65.0233 100.173 64.1079 99.9043 63.6921 99.7441C62.7991 98.9769 62.1784 98.0539 61.8254 96.9751C61.6295 96.3813 61.5307 95.4818 61.5277 94.2766C61.5262 93.3668 61.5277 92.4556 61.5322 91.5429C61.5367 89.9644 61.3438 88.4065 60.9534 86.8691C60.8577 86.2798 60.741 85.6742 60.6019 85.051C60.4643 84.4338 60.4254 83.8165 60.4837 83.1992C60.5555 82.4511 60.7754 81.8926 61.1418 81.5251C61.6654 81.0004 62.4012 80.8917 63.348 81.2003C65.7277 82.0719 68.1807 82.1174 70.7085 81.3385C71.2724 81.165 71.8497 80.9843 72.4405 80.7961Z" fill="#FFCED0"/>
<path d="M60.9521 86.8691C61.344 88.4065 61.537 89.9644 61.5325 91.5429C61.528 92.4556 61.5265 93.3669 61.528 94.2766C61.531 95.4818 61.6297 96.3813 61.8257 96.9751C62.1771 98.0539 62.7994 98.9769 63.6908 99.7441C63.7043 99.7573 63.6908 99.7779 63.6534 99.8073C63.3662 99.6691 63.1195 99.4781 62.916 99.2341C62.1622 98.3302 61.6641 97.3278 61.4233 96.2241C61.3545 95.9095 61.3186 95.3437 61.3156 94.525C61.3156 94.2252 61.3261 93.6579 61.3455 92.8231C61.3949 90.8507 61.2648 88.8665 60.9521 86.8691Z" fill="#512C11"/>
<path d="M65.1504 115.167C65.0801 116.052 64.8183 116.843 64.3666 117.54C64.244 117.729 64.1273 117.925 64.0166 118.123C63.9852 118.179 63.9732 118.239 63.9777 118.304L64.1378 119.935C63.5215 119.957 62.9023 119.978 62.2816 120.001C61.6997 120.022 61.0805 120.07 60.4269 120.145C59.0673 120.301 57.7091 120.435 56.351 120.545L56.1955 120.095L55.9322 118.568C55.9203 118.502 55.8888 118.448 55.838 118.404C55.3623 117.995 54.8493 117.421 54.2989 116.678C53.5974 115.732 53.1397 114.724 52.9243 113.654C54.2017 114.846 55.6944 115.786 57.4025 116.473C58.4256 116.886 59.4098 117.018 60.3551 116.869C61.3811 116.708 62.3713 116.421 63.3241 116.011C63.9209 115.755 64.5296 115.475 65.1504 115.167Z" fill="#CA4822"/>
<path d="M60.0589 118.97C58.7921 118.995 57.5371 118.889 56.2957 118.652C56.2733 118.649 56.2643 118.636 56.2658 118.612L56.2673 118.557C56.2688 118.542 56.2807 118.53 56.2957 118.53H56.2972C57.4354 118.635 58.6859 118.817 60.053 118.78C61.42 118.748 62.6585 118.502 63.7893 118.344C63.7908 118.344 63.7923 118.342 63.7938 118.342C63.8072 118.342 63.8192 118.354 63.8222 118.367L63.8282 118.424C63.8297 118.446 63.8192 118.46 63.7983 118.465C62.5703 118.762 61.3243 118.93 60.0589 118.97Z" fill="#512C11"/>
<path d="M62.5811 122.15L62.9042 125.196C63.1809 126.505 63.667 128.366 64.364 130.781C64.7783 132.211 65.2375 133.359 65.7446 134.221C65.9674 134.602 66.0841 134.877 66.0931 135.047C66.1454 135.973 60.2732 136.432 58.4364 135.347C58.2046 135.211 58.1209 134.871 58.1134 134.427C58.0745 131.292 57.9518 125.372 57.9593 122.346C57.9369 122.212 62.1399 122.537 62.5811 122.15Z" fill="#FFCED0"/>
</svg>
