<svg width="189" height="202" viewBox="0 0 189 202" fill="none" xmlns="http://www.w3.org/2000/svg">
<mask id="mask0_143_327" style="mask-type:luminance" maskUnits="userSpaceOnUse" x="0" y="0" width="189" height="202">
<path d="M0 0L189 0V202H0L0 0Z" fill="white"/>
</mask>
<g mask="url(#mask0_143_327)">
<path fill-rule="evenodd" clip-rule="evenodd" d="M104.525 0.654121C93.8958 -1.50494 72.9163 4.04366 72.1872 4.2678C70.7517 4.7115 69.3047 5.15521 67.8829 5.62178C63.7981 6.95747 59.8413 8.60879 56.0103 10.5506C47.3629 14.9419 35.3257 24.8749 28.7882 32.0588C7.3242 55.6415 1.19586 81.8887 0.288386 112.873C-0.502514 139.833 23.6748 191.575 56.5177 192.785C68.0247 193.208 75.3211 188.687 87.1891 191.202C101.277 194.185 117.122 203.718 131.957 201.211C152.64 197.716 171.635 174.993 181.363 151.388C187.636 136.121 188.479 120.96 188.619 108.788C188.998 75.8621 161.835 34.4466 143.894 18.8437C133.153 9.49848 116.475 3.08535 104.525 0.654121Z" fill="#F1B8B1"/>
</g>
<path fill-rule="evenodd" clip-rule="evenodd" d="M102.973 10.6076C93.2008 8.66814 73.9129 13.6472 73.2408 13.8508C71.9242 14.2488 70.5915 14.6467 69.2863 15.0653C65.5307 16.2637 61.8916 17.7458 58.3715 19.4886C50.419 23.4293 39.3533 32.3423 33.3438 38.7897C13.6102 59.9526 7.97557 83.5102 7.14124 111.313C6.41663 135.511 28.6418 181.944 58.8355 183.028C69.4166 183.408 76.1233 179.35 87.0336 181.608C99.9874 184.286 114.555 192.84 128.192 190.592C147.206 187.454 164.67 167.062 173.617 145.878C179.381 132.176 180.156 118.57 180.287 107.646C180.634 78.1011 155.661 40.9328 139.167 26.9286C129.292 18.544 113.961 12.7873 102.973 10.6076Z" fill="#F05D76"/>
<path fill-rule="evenodd" clip-rule="evenodd" d="M96.0601 116.486C97.2556 114.277 77.9928 108.891 71.5948 109.693C58.3895 111.349 34.9505 136.453 21.6583 124.395C12.3938 115.99 17.8318 97.3199 19.2353 87.069C23.4893 55.9891 47.6895 29.1243 77.3048 20.4607C84.5303 18.3474 96.0327 17.1466 103.485 18.9672C117.91 22.4939 136.202 31.288 145.946 42.161C158.164 55.7718 171.973 94.6623 172.62 112.168C172.969 121.916 169.948 134.067 166.741 143.07C161.835 156.886 148.07 176.18 133.194 181.697C117.318 187.58 104.637 178.385 89.5089 174.165C78.2031 171.012 68.1774 176.931 58.1792 175.684C50.0347 174.673 40.4091 167.588 34.2602 157.522C31.1789 152.481 28.157 147.513 29.5216 141.61C30.0954 139.136 38.0501 133.088 40.3954 132.073C41.7189 131.501 42.6629 135.076 45.1385 140.112C47.1843 144.275 51.6097 148.076 56.8077 147.337C76.123 144.593 57.1483 121.836 57.1483 121.836C57.1483 121.836 68.9386 114.965 79.1037 115.144C87.0608 115.283 94.7937 118.81 96.0601 116.486Z" fill="#9D1A08"/>
<path fill-rule="evenodd" clip-rule="evenodd" d="M120.004 27.0522C88.398 17.8007 68.3763 40.1232 72.8474 55.2755C74.2235 59.9412 77.8237 63.6647 79.1449 68.2207C79.8764 70.7571 77.5699 72.3101 77.6408 74.5858C77.7117 76.6808 79.8489 77.1634 80.6787 78.7026C81.2273 79.7181 81.2136 80.8411 81.7325 81.916C82.0845 82.6662 82.8868 82.1631 83.3074 82.8698C84.0114 84.0248 83.4194 85.1866 84.6583 85.7196C85.4721 86.0695 86.231 86.9638 87.1042 87.7162C90.2404 90.4333 94.092 93.2214 98.4214 92.581C100.264 92.3088 114.239 87.2725 113.046 91.2476C112.173 94.1248 110.079 96.8625 107.844 98.818C102.977 103.049 100.053 101.16 98.858 98.7105C98.2385 97.4045 98.8854 96.0528 98.2682 95.2318C97.3539 94.0379 96.4533 96.5309 96.4533 96.5309C96.4533 96.5309 94.0348 94.2689 93.4725 94.5273C92.8554 94.8109 93.4314 96.0323 93.4314 96.0323C93.4314 96.0323 92.277 94.971 91.9113 95.6663C91.6301 96.2015 92.2085 96.938 92.2085 96.938C92.2085 96.938 91.3078 96.2747 91.013 96.6955C90.6884 97.1461 91.2233 98.2302 91.2233 98.2302C91.2233 98.2302 89.9729 97.9146 89.9866 98.603C90.0415 100.579 92.6153 103.232 93.1639 104.369C93.3194 104.691 94.0211 105.794 93.2622 105.435C92.3913 105.023 91.125 102.82 90.5901 103.086C89.5775 103.605 90.2815 104.98 90.2815 104.98C90.2815 104.98 88.1031 103.28 87.2162 103.612C86.695 103.809 87.4699 105.682 87.4699 105.682C87.4699 105.682 86.1761 104.426 85.4447 105.199C85.2207 105.437 85.9361 106.951 85.9361 106.951C85.9361 106.951 84.8823 105.926 84.4458 106.592C84.1943 107.001 84.9669 107.989 84.9669 107.989C84.9669 107.989 83.7851 108.792 84.2217 109.405C84.9532 110.444 88.9169 111.839 90.7592 112.758C92.8965 113.822 93.1068 114.295 94.444 114.855C95.4841 115.283 96.3984 116.095 95.7789 116.28C94.5286 116.653 89.662 116.868 86.9625 117.092C81.4239 117.545 82.8708 122.206 79.5106 124.525C77.2751 126.069 62.7577 125.392 69.9215 132.905C75.4898 138.74 81.2822 131.064 82.3222 133.42C82.8022 134.525 82.6057 136.277 82.5485 137.45C82.3222 142.463 78.4843 138.879 75.3344 141.084C69.5147 145.162 74.1412 150.555 79.202 151.795C100.657 157.046 87.9614 133.201 96.3984 130.897C100.264 129.843 105.311 136.837 108.109 138.719C116.505 144.378 130.057 142.834 135.836 133.96C144.287 120.951 138.156 96.2541 136.442 81.5981C135.683 74.9677 137.692 66.3498 138.579 59.8795C140.561 45.5391 130.761 30.1947 120.004 27.0522Z" fill="#FDB5A7"/>
<path fill-rule="evenodd" clip-rule="evenodd" d="M94.5127 106.37C97.0157 107.219 99.5324 107.557 102.035 107.406C103.738 107.303 105.425 106.979 107.055 106.448C107.702 106.238 108.335 105.986 108.955 105.702C109.883 105.282 110.781 104.792 111.638 104.25C112.511 103.71 113.327 103.123 114.127 102.482C115.296 101.531 116.39 100.479 117.389 99.3511C117.517 99.2344 117.517 99.0469 117.389 98.9303C117.277 98.8136 117.094 98.8136 116.969 98.9303C115.168 100.561 113.129 101.938 110.964 103.061C110.107 103.505 109.236 103.902 108.335 104.262C107.745 104.502 107.14 104.719 106.536 104.927C105.03 105.444 103.485 105.835 101.896 106.05C99.5484 106.366 97.1299 106.338 94.6955 105.773C94.5287 105.725 94.3595 105.821 94.3024 105.986C94.2612 106.151 94.3595 106.322 94.5127 106.37Z" fill="#FFA08D"/>
<path fill-rule="evenodd" clip-rule="evenodd" d="M103.4 117.968C103.4 117.954 103.427 117.957 103.457 117.966C103.441 117.968 103.414 117.968 103.4 117.968C103.4 118.012 103.441 117.993 103.471 117.973V117.968L103.457 117.966L103.485 117.959C103.485 117.954 103.498 117.952 103.512 117.95V117.948C103.512 117.952 103.498 117.961 103.471 117.973C103.512 117.984 103.555 117.998 103.597 118.009C104.145 118.124 105.439 118.412 105.846 118.451C106.662 118.526 107.464 118.529 108.278 118.458C109.094 118.387 109.896 118.231 110.683 118.021C111.837 117.694 112.891 117.264 113.874 116.706C114.537 116.328 115.154 115.894 115.759 115.423C116.63 114.732 117.446 113.963 118.233 113.156C119.373 111.983 120.441 110.729 121.579 109.508C121.707 109.394 121.707 109.204 121.593 109.085C121.481 108.966 121.284 108.959 121.172 109.073C120.103 109.954 119.063 110.846 118.022 111.727C116.996 112.6 115.942 113.43 114.845 114.192C114.127 114.688 113.396 115.15 112.623 115.569C111.878 115.974 111.106 116.356 110.262 116.646C109.544 116.905 108.84 117.106 108.109 117.248C107.38 117.392 106.634 117.486 105.876 117.504C105.48 117.515 104.23 117.399 103.695 117.36C103.569 117.351 103.485 117.344 103.441 117.344C103.357 117.344 103.302 117.362 103.274 117.369C103.146 117.44 103.091 117.538 103.091 117.623C103.091 117.694 103.075 117.824 103.217 117.911C103.274 117.95 103.343 117.968 103.4 117.968ZM103.681 117.783C103.667 117.842 103.624 117.9 103.539 117.934C103.583 117.913 103.624 117.881 103.654 117.84C103.667 117.822 103.681 117.803 103.681 117.783ZM103.681 117.513C103.709 117.563 103.709 117.621 103.709 117.678C103.722 117.632 103.709 117.575 103.681 117.513Z" fill="#FFA08D"/>
<path fill-rule="evenodd" clip-rule="evenodd" d="M96.3842 116.317C96.3682 116.303 96.3545 116.292 96.3271 116.283C96.1717 116.2 95.9888 116.258 95.9042 116.409C95.7922 116.589 95.8631 116.726 95.9339 116.827C95.9751 116.889 96.0596 116.937 96.1854 116.969C96.3134 117.001 96.6082 116.964 96.734 117.008L97.7054 117.44C98.2243 117.682 98.7318 117.941 99.2507 118.211C99.7444 118.474 100.236 118.753 100.7 119.059C101.219 119.391 101.74 119.734 102.261 120.061C102.794 120.386 103.315 120.706 103.85 121.022C104.27 121.276 104.693 121.518 105.128 121.767C105.761 122.14 106.394 122.513 107.027 122.902C107.941 123.457 108.826 124.022 109.699 124.644C109.825 124.752 110.008 124.738 110.12 124.612C110.218 124.487 110.204 124.299 110.079 124.192C109.446 123.54 108.799 122.922 108.124 122.325C107.434 121.728 106.732 121.163 106.014 120.619C105.649 120.349 105.283 120.086 104.904 119.835C104.538 119.581 104.158 119.336 103.765 119.105C103.006 118.65 102.204 118.243 101.402 117.824C100.967 117.612 100.531 117.41 100.067 117.236C99.4061 116.978 98.7181 116.765 98.0415 116.562C97.8175 116.5 97.6072 116.431 97.3809 116.374C97.2117 116.335 97.0586 116.299 96.9031 116.278C96.7911 116.262 96.5237 116.296 96.3842 116.317Z" fill="#FFA08D"/>
<path fill-rule="evenodd" clip-rule="evenodd" d="M117.135 56.156L117.121 56.1629L117.094 56.1789C117.053 56.1972 117.023 56.2201 117.037 56.2429C116.982 56.3367 116.968 56.4602 117.023 56.5677C117.067 56.6798 117.151 56.7141 117.206 56.737C117.291 56.7713 117.375 56.7575 117.46 56.7232C117.501 56.7027 117.558 56.6546 117.615 56.5746C117.643 56.5334 117.7 56.4007 117.727 56.355C118.134 55.893 118.808 55.598 119.499 55.479C120.132 55.3693 120.806 55.4402 121.284 55.7604C122.578 56.5929 123.154 57.6084 123.252 58.6902C123.296 59.1979 123.238 59.7171 123.113 60.2477C122.873 61.2975 122.381 62.3656 121.734 63.3719C120.681 65.0324 119.316 66.5282 118.178 67.4042C118.036 67.4957 117.995 67.6832 118.093 67.8181C118.178 67.9554 118.36 67.992 118.5 67.9005C119.835 67.1343 121.508 65.7757 122.802 64.1358C123.661 63.0495 124.349 61.8396 124.672 60.632C124.854 59.9184 124.912 59.1979 124.827 58.5072C124.617 57.0411 123.76 55.678 121.903 54.6854C121.158 54.3034 120.173 54.2531 119.259 54.5344C118.415 54.7952 117.629 55.2938 117.192 55.9479C117.165 55.9845 117.151 56.0806 117.135 56.156ZM117.121 56.172L117.094 56.1789C117.08 56.1972 117.053 56.2201 117.037 56.2429C117.053 56.2498 117.053 56.2567 117.067 56.2612C117.094 56.2772 117.121 56.2315 117.135 56.1697L117.121 56.172Z" fill="#FFA08D"/>
</svg>
